<svg width="131" height="51" viewBox="0 0 131 51" fill="none" xmlns="http://www.w3.org/2000/svg">
<path d="M12.416 45.8088C10.2827 45.8088 8.39467 45.3182 6.752 44.3368C5.10933 43.3342 3.81867 41.9688 2.88 40.2408C1.94133 38.4915 1.472 36.4862 1.472 34.2248C1.472 31.9635 1.93067 29.9688 2.848 28.2408C3.78667 26.4915 5.06667 25.1262 6.688 24.1448C8.33067 23.1422 10.208 22.6408 12.32 22.6408C13.664 22.6408 14.9547 22.8862 16.192 23.3768C17.4293 23.8462 18.5387 24.5182 19.52 25.3928C20.5013 26.2462 21.2587 27.2382 21.792 28.3688L19.456 29.5528C19.0293 28.6568 18.4427 27.8782 17.696 27.2168C16.9493 26.5555 16.1173 26.0435 15.2 25.6808C14.2827 25.2968 13.3227 25.1048 12.32 25.1048C10.7627 25.1048 9.36533 25.4995 8.128 26.2888C6.89067 27.0568 5.92 28.1235 5.216 29.4888C4.53333 30.8542 4.192 32.4328 4.192 34.2248C4.192 36.0168 4.544 37.6062 5.248 38.9928C5.952 40.3795 6.92267 41.4675 8.16 42.2568C9.41867 43.0248 10.8373 43.4088 12.416 43.4088C13.44 43.4088 14.4107 43.2062 15.328 42.8008C16.2453 42.3742 17.0667 41.7982 17.792 41.0728C18.5387 40.3475 19.1253 39.5155 19.552 38.5768L21.92 39.7608C21.3653 40.9342 20.5973 41.9795 19.616 42.8968C18.656 43.8142 17.5467 44.5288 16.288 45.0408C15.0507 45.5528 13.76 45.8088 12.416 45.8088ZM30.3585 45.8088C28.4812 45.8088 27.0092 45.3822 25.9425 44.5288C24.8972 43.6542 24.3745 42.4488 24.3745 40.9128C24.3745 39.2915 24.9078 38.0542 25.9745 37.2008C27.0625 36.3262 28.5772 35.8888 30.5185 35.8888H34.9665C34.8598 34.3742 34.4865 33.2435 33.8465 32.4968C33.2065 31.7288 32.2465 31.3448 30.9665 31.3448C30.0918 31.3448 29.3345 31.5262 28.6945 31.8888C28.0758 32.2302 27.5638 32.7848 27.1585 33.5528L24.8545 32.6568C25.2598 31.9102 25.7505 31.2702 26.3265 30.7368C26.9025 30.1822 27.5745 29.7662 28.3425 29.4888C29.1105 29.1902 29.9852 29.0408 30.9665 29.0408C32.4598 29.0408 33.6865 29.3395 34.6465 29.9368C35.6278 30.5128 36.3638 31.3768 36.8545 32.5288C37.3452 33.6595 37.5798 35.0675 37.5585 36.7528L37.5265 45.4248H35.1585L35.0305 43.2808C34.5612 44.0915 33.9318 44.7208 33.1425 45.1688C32.3532 45.5955 31.4252 45.8088 30.3585 45.8088ZM30.4865 43.5688C31.4038 43.5688 32.2038 43.3768 32.8865 42.9928C33.5692 42.5875 34.0918 42.0222 34.4545 41.2968C34.8385 40.5715 35.0305 39.6968 35.0305 38.6728V38.0328H31.0945C29.6012 38.0328 28.5345 38.2782 27.8945 38.7688C27.2758 39.2595 26.9665 39.9635 26.9665 40.8808C26.9665 41.7128 27.2758 42.3742 27.8945 42.8648C28.5132 43.3342 29.3772 43.5688 30.4865 43.5688ZM49.583 45.8088C48.4097 45.8088 47.3643 45.5315 46.447 44.9768C45.5297 44.4222 44.7723 43.6648 44.175 42.7048L44.047 45.4248H41.615V23.0248H44.175V32.1128C44.7723 31.1528 45.5297 30.4062 46.447 29.8728C47.3643 29.3182 48.4097 29.0408 49.583 29.0408C51.0123 29.0408 52.271 29.3928 53.359 30.0968C54.447 30.8008 55.2897 31.7822 55.887 33.0408C56.5057 34.2995 56.815 35.7608 56.815 37.4248C56.815 39.0675 56.5057 40.5288 55.887 41.8088C55.2897 43.0675 54.447 44.0488 53.359 44.7528C52.271 45.4568 51.0123 45.8088 49.583 45.8088ZM49.007 43.4728C50.0097 43.4728 50.895 43.2168 51.663 42.7048C52.4523 42.1928 53.071 41.4782 53.519 40.5608C53.9883 39.6435 54.223 38.5982 54.223 37.4248C54.223 36.2515 53.999 35.2062 53.551 34.2888C53.1243 33.3715 52.5163 32.6568 51.727 32.1448C50.9377 31.6328 50.0417 31.3768 49.039 31.3768C48.1003 31.3768 47.2577 31.6328 46.511 32.1448C45.7857 32.6568 45.2097 33.3715 44.783 34.2888C44.3777 35.2062 44.175 36.2515 44.175 37.4248C44.175 38.5982 44.3777 39.6435 44.783 40.5608C45.2097 41.4782 45.7857 42.1928 46.511 42.7048C47.2363 43.2168 48.0683 43.4728 49.007 43.4728ZM67.373 45.8088C65.8157 45.8088 64.4397 45.4568 63.245 44.7528C62.0503 44.0275 61.1117 43.0355 60.429 41.7768C59.7677 40.5182 59.437 39.0675 59.437 37.4248C59.437 35.7822 59.7677 34.3315 60.429 33.0728C61.1117 31.8142 62.0397 30.8328 63.213 30.1288C64.4077 29.4035 65.773 29.0408 67.309 29.0408C68.8023 29.0408 70.093 29.4142 71.181 30.1608C72.269 30.8862 73.1117 31.9102 73.709 33.2328C74.3063 34.5555 74.605 36.1128 74.605 37.9048H62.029C62.1357 39.6542 62.6903 41.0195 63.693 42.0008C64.6957 42.9822 65.965 43.4728 67.501 43.4728C68.6317 43.4728 69.581 43.2062 70.349 42.6728C71.1383 42.1395 71.7463 41.4355 72.173 40.5608L74.381 41.6808C73.9757 42.5128 73.4317 43.2382 72.749 43.8568C72.0877 44.4755 71.2983 44.9555 70.381 45.2968C69.485 45.6382 68.4823 45.8088 67.373 45.8088ZM62.221 35.7608H71.853C71.789 34.8435 71.5437 34.0542 71.117 33.3928C70.7117 32.7315 70.1783 32.2195 69.517 31.8568C68.8557 31.4942 68.109 31.3128 67.277 31.3128C66.4663 31.3128 65.6877 31.4942 64.941 31.8568C64.1943 32.1982 63.5757 32.7102 63.085 33.3928C62.5943 34.0542 62.3063 34.8435 62.221 35.7608ZM77.8338 45.4248V23.0248H80.3938V45.4248H77.8338ZM91.873 45.8088C90.3157 45.8088 88.9397 45.4568 87.745 44.7528C86.5503 44.0275 85.6117 43.0355 84.929 41.7768C84.2677 40.5182 83.937 39.0675 83.937 37.4248C83.937 35.7822 84.2677 34.3315 84.929 33.0728C85.6117 31.8142 86.5397 30.8328 87.713 30.1288C88.9077 29.4035 90.273 29.0408 91.809 29.0408C93.3023 29.0408 94.593 29.4142 95.681 30.1608C96.769 30.8862 97.6117 31.9102 98.209 33.2328C98.8063 34.5555 99.105 36.1128 99.105 37.9048H86.529C86.6357 39.6542 87.1903 41.0195 88.193 42.0008C89.1957 42.9822 90.465 43.4728 92.001 43.4728C93.1317 43.4728 94.081 43.2062 94.849 42.6728C95.6383 42.1395 96.2463 41.4355 96.673 40.5608L98.881 41.6808C98.4757 42.5128 97.9317 43.2382 97.249 43.8568C96.5877 44.4755 95.7983 44.9555 94.881 45.2968C93.985 45.6382 92.9823 45.8088 91.873 45.8088ZM86.721 35.7608H96.353C96.289 34.8435 96.0437 34.0542 95.617 33.3928C95.2117 32.7315 94.6783 32.2195 94.017 31.8568C93.3557 31.4942 92.609 31.3128 91.777 31.3128C90.9663 31.3128 90.1877 31.4942 89.441 31.8568C88.6943 32.1982 88.0757 32.7102 87.585 33.3928C87.0943 34.0542 86.8063 34.8435 86.721 35.7608ZM102.494 45.4248V29.4248H105.054V45.4248H102.494ZM103.806 25.7128C103.379 25.7128 103.006 25.5528 102.686 25.2328C102.366 24.9128 102.206 24.5395 102.206 24.1128C102.206 23.6648 102.366 23.2915 102.686 22.9928C103.006 22.6728 103.379 22.5128 103.806 22.5128C104.254 22.5128 104.627 22.6728 104.926 22.9928C105.246 23.2915 105.406 23.6648 105.406 24.1128C105.406 24.5395 105.246 24.9128 104.926 25.2328C104.627 25.5528 104.254 25.7128 103.806 25.7128ZM109.771 45.4248V23.0248H112.331V45.4248H109.771ZM121.859 45.8088C119.981 45.8088 118.509 45.3822 117.443 44.5288C116.397 43.6542 115.875 42.4488 115.875 40.9128C115.875 39.2915 116.408 38.0542 117.475 37.2008C118.563 36.3262 120.077 35.8888 122.019 35.8888H126.467C126.36 34.3742 125.987 33.2435 125.347 32.4968C124.707 31.7288 123.747 31.3448 122.467 31.3448C121.592 31.3448 120.835 31.5262 120.195 31.8888C119.576 32.2302 119.064 32.7848 118.659 33.5528L116.355 32.6568C116.76 31.9102 117.251 31.2702 117.827 30.7368C118.403 30.1822 119.075 29.7662 119.843 29.4888C120.611 29.1902 121.485 29.0408 122.467 29.0408C123.96 29.0408 125.187 29.3395 126.147 29.9368C127.128 30.5128 127.864 31.3768 128.355 32.5288C128.845 33.6595 129.08 35.0675 129.059 36.7528L129.027 45.4248H126.659L126.531 43.2808C126.061 44.0915 125.432 44.7208 124.643 45.1688C123.853 45.5955 122.925 45.8088 121.859 45.8088ZM121.987 43.5688C122.904 43.5688 123.704 43.3768 124.387 42.9928C125.069 42.5875 125.592 42.0222 125.955 41.2968C126.339 40.5715 126.531 39.6968 126.531 38.6728V38.0328H122.595C121.101 38.0328 120.035 38.2782 119.395 38.7688C118.776 39.2595 118.467 39.9635 118.467 40.8808C118.467 41.7128 118.776 42.3742 119.395 42.8648C120.013 43.3342 120.877 43.5688 121.987 43.5688Z" fill="#4F4845"/>
<line x1="1" y1="13.0428" x2="41" y2="13.0428" stroke="#547558" stroke-width="2" stroke-linecap="round"/>
<line x1="90" y1="13.0428" x2="130" y2="13.0428" stroke="#547558" stroke-width="2" stroke-linecap="round"/>
<path d="M44.1785 0H44.6251C45.0552 0.551501 45.0588 0.828764 45.3695 1.37718C45.7506 2.04989 46.7947 2.88258 47.5652 3.02501C48.098 3.1235 48.4132 2.62755 48.8035 2.41352C49.7715 1.8827 51.0556 1.88485 52.1276 2.00772C53.3806 2.1552 54.4378 2.45655 55.2634 3.46707C55.7091 4.01249 56.0477 4.63998 56.2485 5.32892C56.4767 6.11124 56.1924 7.26724 56.842 7.89579C57.1772 8.1872 57.7115 8.35923 58.1271 8.4883C58.806 8.69909 59.5336 8.82114 60.2101 9.01629C61.2821 9.32552 62.3702 9.58886 63.4414 9.8874L76.6448 13.5669C78.8133 14.1559 80.9741 14.7719 83.1271 15.4149C84.2055 15.748 85.338 16.0397 86.3889 16.4623C86.5198 16.5149 86.7581 16.6334 86.7945 16.7761C86.7365 17.0252 85.3078 16.916 85.0489 16.8896C83.6242 16.7442 82.2192 16.4949 80.8074 16.2741L74.2527 15.2279L67.6596 14.1004C66.0168 13.8106 64.3635 13.5472 62.7522 13.1199C62.2862 12.9963 61.5367 12.5636 61.1966 12.2377C59.3984 10.5145 56.9772 9.6732 54.5025 9.57988C53.8153 9.56321 52.7189 9.58873 52.0916 9.88185C51.6118 10.1948 51.377 10.4276 50.7598 10.2839C50.0818 10.1259 49.884 9.51555 49.4594 9.07454C48.7412 8.32842 48.1603 7.78712 47.6275 6.87386C47.386 6.46794 47.2307 6.01727 47.1712 5.54959C47.133 5.2532 47.1307 4.758 46.9975 4.51028C46.7503 4.05081 46.1367 3.78413 45.7448 3.4536C45.3681 3.13587 44.9951 2.79862 44.6637 2.4348C44.4725 2.22489 44.2838 1.88943 44.14 1.64597C44.0395 1.47598 43.8392 0.96208 43.7296 0.857478V0.385495C43.8605 0.284305 44.0558 0.110768 44.1785 0ZM52.6725 8.4502C53.3973 8.37951 54.0628 8.02192 54.5186 7.45825C55.4322 6.35074 55.089 4.93345 54.0309 4.02634C53.2507 3.35739 52.1257 3.07098 51.1002 3.13648C50.6694 3.19014 50.4025 3.22558 49.9994 3.40724C48.8575 3.92193 48.5848 4.82144 48.6926 5.99847C48.7431 6.54961 49.074 6.87045 49.4532 7.24097C50.3397 8.13739 51.3972 8.54993 52.6725 8.4502ZM64.3274 12.7371C64.8392 12.6216 65.1622 12.1192 65.0521 11.61C64.942 11.1008 64.4397 10.7741 63.9253 10.8771C63.5868 10.9448 63.3112 11.188 63.2037 11.5136C63.0963 11.8393 63.1737 12.1971 63.4063 12.4503C63.6389 12.7035 63.9907 12.8131 64.3274 12.7371Z" fill="#547558"/>
<path d="M64.0628 11.2637C64.129 11.263 64.2125 11.27 64.2744 11.2933C64.4133 11.3468 64.5247 11.4536 64.5832 11.5896C64.7298 11.9272 64.5283 12.1828 64.2141 12.3078C63.6632 12.3178 63.5478 11.9717 63.6622 11.503L63.8398 11.3219L64.0628 11.2637Z" fill="#547558"/>
<path d="M60.4293 12.0377C60.942 12.2316 61.0976 12.9006 61.6974 13.1151C61.9441 13.2033 63.1857 13.5206 63.1515 13.7671C62.8363 14.0732 59.5476 14.6457 58.9847 14.826C58.802 14.8846 58.3019 15.0196 58.1067 15.0767C57.3095 15.3097 55.9842 15.4988 55.9979 16.5765C56.0029 16.9618 56.0837 17.3234 56.1035 17.7056C56.0776 18.882 55.5752 19.9555 54.7405 20.7842C54.1282 21.3921 53.5075 21.779 52.6765 22.0359C52.4615 22.1024 51.9916 22.1352 51.8251 22.2541H50.0146C49.77 22.1135 49.4529 22.1213 49.1951 22.0172C48.1045 21.5763 47.2642 20.8594 46.948 19.7228C46.4519 17.9399 47.3725 16.5892 48.705 15.4996C48.8986 15.3437 49.0542 15.1657 49.225 14.9913C49.5028 14.7075 49.4576 14.2548 49.7062 13.9944C50.4811 13.1832 51.2775 14.1754 52.0053 14.2664C52.8511 14.3722 53.6954 14.2887 54.5247 14.1625C55.87 13.9479 56.9858 13.6499 58.2348 13.1145C58.8696 12.8424 59.8641 12.122 60.4293 12.0377ZM51.1357 21.0544C51.4078 21.0095 51.8723 20.9545 52.1155 20.8687C53.5222 20.3721 55.0317 19.2032 54.766 17.544C54.5402 16.1342 53.1971 15.6234 51.91 15.6562C50.6208 15.781 49.5798 16.2005 48.7621 17.1899C47.9722 18.1457 47.976 19.659 49.0196 20.4144C49.7144 20.9173 50.285 21.1047 51.1357 21.0544Z" fill="#547558"/>
<path d="M87.2702 6.68605C86.9677 6.74153 86.7803 6.87314 86.5087 6.96129C84.9425 7.46963 83.3783 7.93582 81.795 8.38692C79.227 9.13608 76.6463 9.84169 74.0543 10.5034C73.2713 10.7061 72.4982 10.9501 71.7031 11.1149C71.3595 11.1862 71.0128 11.2983 70.6608 11.3211C70.1505 11.3541 69.663 11.1857 69.1733 11.0708C68.6859 10.9551 68.1956 10.8569 67.7172 10.7072C67.1073 10.5163 66.4798 10.4044 65.8749 10.197C65.7478 10.1534 65.4088 10.1009 65.3668 9.9863C65.3704 9.96546 65.3746 9.90659 65.3902 9.89848C65.5855 9.78784 65.835 9.78512 66.0461 9.72536C66.6454 9.55582 67.2586 9.48617 67.8627 9.3669C68.3866 9.26352 68.9063 9.13517 69.4348 9.033C71.6928 8.60135 73.9555 8.19354 76.2223 7.80968C76.7125 7.72286 77.2237 7.59275 77.7092 7.52014C78.4714 7.40611 79.2318 7.29951 79.9907 7.1564C80.3166 7.09497 80.6852 7.09055 81.0142 7.02907C81.9063 6.86228 82.7937 6.74379 83.6991 6.67498C84.8282 6.5683 86.1394 6.29543 87.2702 6.48796V6.68605Z" fill="#547558"/>
</svg>
